<?xml version="1.0" encoding="UTF-8" standalone="no"?>
<svg
   xmlns:dc="http://purl.org/dc/elements/1.1/"
   xmlns:cc="http://creativecommons.org/ns#"
   xmlns:rdf="http://www.w3.org/1999/02/22-rdf-syntax-ns#"
   xmlns:svg="http://www.w3.org/2000/svg"
   xmlns="http://www.w3.org/2000/svg"
   xmlns:sodipodi="http://sodipodi.sourceforge.net/DTD/sodipodi-0.dtd"
   xmlns:inkscape="http://www.inkscape.org/namespaces/inkscape"
   version="1.1"
   id="Layer_2"
   x="0px"
   y="0px"
   width="400.667px"
   height="400.666px"
   viewBox="0 0 400.667 400.666"
   enable-background="new 0 0 400.667 400.666"
   xml:space="preserve"
   sodipodi:docname="heading_mechanics.svg"
   inkscape:version="0.92.5 (2060ec1f9f, 2020-04-08)"><metadata
   id="metadata54"><rdf:RDF><cc:Work
       rdf:about=""><dc:format>image/svg+xml</dc:format><dc:type
         rdf:resource="http://purl.org/dc/dcmitype/StillImage" /></cc:Work></rdf:RDF></metadata><defs
   id="defs52"><filter
     inkscape:collect="always"
     style="color-interpolation-filters:sRGB"
     id="filter882"><feBlend
       inkscape:collect="always"
       mode="overlay"
       in2="BackgroundImage"
       id="feBlend884" /></filter></defs><sodipodi:namedview
   pagecolor="#ffffff"
   bordercolor="#666666"
   borderopacity="1"
   objecttolerance="10"
   gridtolerance="10"
   guidetolerance="10"
   inkscape:pageopacity="0"
   inkscape:pageshadow="2"
   inkscape:window-width="2488"
   inkscape:window-height="1376"
   id="namedview50"
   showgrid="false"
   inkscape:zoom="3.3319963"
   inkscape:cx="183.07615"
   inkscape:cy="211.31568"
   inkscape:window-x="1672"
   inkscape:window-y="27"
   inkscape:window-maximized="1"
   inkscape:current-layer="Layer_2" />
<filter
   filterUnits="objectBoundingBox"
   id="AI_Shadow_1">
	<feGaussianBlur
   stdDeviation="5"
   result="blur"
   in="SourceAlpha"
   id="feGaussianBlur2" />
	<feOffset
   dy="0"
   dx="0"
   result="offsetBlurredAlpha"
   in="blur"
   id="feOffset4" />
	<feMerge
   id="feMerge10">
		<feMergeNode
   in="offsetBlurredAlpha"
   id="feMergeNode6" />
		<feMergeNode
   in="SourceGraphic"
   id="feMergeNode8" />
	</feMerge>
</filter>
<g
   filter="url(#AI_Shadow_1)"
   id="g15"
   style="filter:url(#filter882)">
	
</g>








<path
   id="path1645"
   style="fill:none;stroke:#ff7f00;stroke-width:2.64566929;stroke-linecap:butt;stroke-linejoin:miter;stroke-miterlimit:4;stroke-dasharray:none;stroke-opacity:1"
   d="m 180.83381,243.6203 -1.71041,0.10527 0.92421,18.6478 z m 1.02379,40.41545 -4.13786,-0.0451 2.0154,5.2513 z m 0.98394,-0.89588 1.16356,-15.55148 16.41307,0.29016 15.80728,-0.0699 1.16356,15.55148 -16.97084,-0.0399 z m 0.3808,-16.46048 c -0.3811,5.55145 -0.70591,10.90065 -1.13189,16.44778 l -4.5999,-0.0512 -10.59831,-83.67138 0.52126,-20.03682 6.50418,-66.42583 c 0.0103,-0.0168 0.87986,-26.153666 26.65626,-25.305851 25.77639,-0.847815 27.19112,23.965001 27.20142,23.981831 l 5.64747,67.74985 0.52126,20.03682 -11.20409,83.89167 -4.59989,0.0512 c -0.42598,-5.54712 -0.7508,-10.89631 -1.13189,-16.44777 h -16.59005 z m 36.17439,-22.8388 1.71042,0.10526 -0.92421,18.6478 z m -1.02378,40.41545 4.13786,-0.0451 -2.0154,5.25129 z"
   inkscape:connector-curvature="0"
   sodipodi:nodetypes="cccccccccccccccccccccccccccccccccccccc" /><path
   id="rect1664"
   style="opacity:1;fill:none;fill-opacity:1;stroke:#ff7f00;stroke-width:2.64566929;stroke-linecap:butt;stroke-linejoin:round;stroke-miterlimit:4;stroke-dasharray:none;stroke-dashoffset:0;stroke-opacity:1"
   d="m 195.12615,237.30794 h 11.22001 c 1.27427,0 2.30013,1.2492 2.30013,2.80092 0,1.55171 -1.02586,2.80091 -2.30013,2.80091 h -11.22001 c -1.27428,0 -2.30013,-1.2492 -2.30013,-2.80091 0,-1.55172 1.02585,-2.80092 2.30013,-2.80092 z m 5.45619,-96.15251 c 4.99744,0 9.02065,5.35902 9.02065,12.01574 v 71.72623 c 0,6.65672 -4.02321,12.01573 -9.02065,12.01573 -4.99744,0 -9.02065,-5.35901 -9.02065,-12.01573 v -71.72623 c 0,-6.65672 4.02321,-12.01574 9.02065,-12.01574 z"
   inkscape:connector-curvature="0" /><path
   style="fill:#ff7f00;fill-opacity:1;stroke:#ff7f00;stroke-width:1.48180246px;stroke-linecap:butt;stroke-linejoin:miter;stroke-opacity:1"
   d="m 200.89838,63.74752 11.86161,-17.515556 -24.3298,0.04585 z"
   id="path858"
   inkscape:connector-curvature="0"
   sodipodi:nodetypes="cccc" /></svg>