<?xml version="1.0" encoding="UTF-8" standalone="no"?>
<svg
   xmlns:dc="http://purl.org/dc/elements/1.1/"
   xmlns:cc="http://creativecommons.org/ns#"
   xmlns:rdf="http://www.w3.org/1999/02/22-rdf-syntax-ns#"
   xmlns:svg="http://www.w3.org/2000/svg"
   xmlns="http://www.w3.org/2000/svg"
   xmlns:sodipodi="http://sodipodi.sourceforge.net/DTD/sodipodi-0.dtd"
   xmlns:inkscape="http://www.inkscape.org/namespaces/inkscape"
   version="1.1"
   x="0px"
   y="0px"
   width="400.667px"
   height="400.666px"
   viewBox="0 0 400.667 400.666"
   enable-background="new 0 0 400.667 400.666"
   xml:space="preserve"
   id="svg92"
   sodipodi:docname="horizon_ball.svg"
   inkscape:version="0.92.5 (2060ec1f9f, 2020-04-08)"><metadata
   id="metadata98"><rdf:RDF><cc:Work
       rdf:about=""><dc:format>image/svg+xml</dc:format><dc:type
         rdf:resource="http://purl.org/dc/dcmitype/StillImage" /></cc:Work></rdf:RDF></metadata><defs
   id="defs96" /><sodipodi:namedview
   pagecolor="#ffffff"
   bordercolor="#666666"
   borderopacity="1"
   objecttolerance="10"
   gridtolerance="10"
   guidetolerance="10"
   inkscape:pageopacity="0"
   inkscape:pageshadow="2"
   inkscape:window-width="2488"
   inkscape:window-height="1376"
   id="namedview94"
   showgrid="false"
   showguides="true"
   inkscape:guide-bbox="true"
   inkscape:zoom="3.3319963"
   inkscape:cx="162.86979"
   inkscape:cy="218.19"
   inkscape:window-x="1672"
   inkscape:window-y="27"
   inkscape:window-maximized="1"
   inkscape:current-layer="layer1" />
<filter
   filterUnits="objectBoundingBox"
   id="AI_Shadow_1">
	<feGaussianBlur
   stdDeviation="5"
   result="blur"
   in="SourceAlpha"
   id="feGaussianBlur2" />
	<feOffset
   dy="0"
   dx="0"
   result="offsetBlurredAlpha"
   in="blur"
   id="feOffset4" />
	<feMerge
   id="feMerge10">
		<feMergeNode
   in="offsetBlurredAlpha"
   id="feMergeNode6" />
		<feMergeNode
   in="SourceGraphic"
   id="feMergeNode8" />
	</feMerge>
</filter>
	
	
	
		
	
		
	
	
		
	
		
	
		
	
		
	
		
	
	
	
	
	
	
	
	

<g
   inkscape:groupmode="layer"
   id="layer1"
   inkscape:label="Layer 1"
   style="display:inline"><path
     style="fill:none;stroke:#ffffff;stroke-width:2;stroke-miterlimit:10"
     d="M 99.667,200.457 H 301.66699"
     id="line26" /><path
     style="fill:none;stroke:#0094ce;stroke-width:2;stroke-miterlimit:10;stroke-opacity:1"
     d="m 187.979,187.37399 h 25"
     id="line28" /><path
     style="fill:none;stroke:#0094ce;stroke-width:2;stroke-miterlimit:10;stroke-opacity:1"
     d="m 188.16701,213.49899 h 25"
     id="line30" /><path
     style="fill:none;stroke:#0094ce;stroke-width:2;stroke-miterlimit:10;stroke-opacity:1"
     d="m 188.026,241.42 h 25"
     id="line32" /><path
     style="fill:none;stroke:#0094ce;stroke-width:2;stroke-miterlimit:10;stroke-opacity:1"
     d="m 188.16701,159.37399 h 25"
     id="line34" /><path
     style="fill:none;stroke:#0094ce;stroke-width:2;stroke-miterlimit:10;stroke-opacity:1"
     d="m 180.04201,173.405 h 40"
     id="line36" /><path
     style="fill:none;stroke:#0094ce;stroke-width:2;stroke-miterlimit:10;stroke-opacity:1"
     d="m 180.04201,227.49899 h 40"
     id="line38" /><path
     style="fill:none;stroke:#0094ce;stroke-width:2;stroke-miterlimit:10;stroke-opacity:1"
     d="m 170.04201,255.332 h 60"
     id="line40" /><path
     style="fill:none;stroke:#0094ce;stroke-width:2;stroke-miterlimit:10;stroke-opacity:1"
     d="m 170.04201,145.33299 h 60"
     id="line42" /><path
     style="display:inline;fill:none;stroke:#0094ce;stroke-width:2;stroke-miterlimit:10;stroke-opacity:1"
     d="M 99.333,200.33299 H 301.33301"
     id="line26-0" /><g
     aria-label="10"
     transform="matrix(1.124806,0,0,1.124806,-93.650777,42.46728)"
     style="font-style:normal;font-variant:normal;font-weight:normal;font-stretch:normal;font-size:13.33340263px;line-height:1.25;font-family:sans-serif;-inkscape-font-specification:'sans-serif, Normal';font-variant-ligatures:normal;font-variant-caps:normal;font-variant-numeric:normal;font-feature-settings:normal;text-align:start;letter-spacing:0px;word-spacing:0px;writing-mode:lr-tb;text-anchor:start;fill:#0094ce;fill-opacity:1;stroke:none"
     id="flowRoot1126"><path
       d="m 281.78061,119.98118 h 2.14845 v -7.41541 l -2.33726,0.46875 v -1.19792 l 2.32424,-0.46875 h 1.31511 v 8.61333 h 2.14844 v 1.10677 h -5.59898 z"
       style="font-style:normal;font-variant:normal;font-weight:normal;font-stretch:normal;font-size:13.33340263px;font-family:sans-serif;-inkscape-font-specification:'sans-serif, Normal';font-variant-ligatures:normal;font-variant-caps:normal;font-variant-numeric:normal;font-feature-settings:normal;text-align:start;writing-mode:lr-tb;text-anchor:start;fill:#0094ce;fill-opacity:1"
       id="path958"
       inkscape:connector-curvature="0" /><path
       d="m 292.84837,112.23374 q -1.01563,0 -1.52995,1.00261 -0.50782,0.9961 -0.50782,3.00132 0,1.9987 0.50782,3.00131 0.51432,0.9961 1.52995,0.9961 1.02214,0 1.52996,-0.9961 0.51432,-1.00261 0.51432,-3.00131 0,-2.00522 -0.51432,-3.00132 -0.50782,-1.00261 -1.52996,-1.00261 z m 0,-1.04167 q 1.63413,0 2.49351,1.29558 0.86589,1.28907 0.86589,3.75002 0,2.45444 -0.86589,3.75002 -0.85938,1.28907 -2.49351,1.28907 -1.63412,0 -2.50001,-1.28907 -0.85938,-1.29558 -0.85938,-3.75002 0,-2.46095 0.85938,-3.75002 0.86589,-1.29558 2.50001,-1.29558 z"
       style="font-style:normal;font-variant:normal;font-weight:normal;font-stretch:normal;font-size:13.33340263px;font-family:sans-serif;-inkscape-font-specification:'sans-serif, Normal';font-variant-ligatures:normal;font-variant-caps:normal;font-variant-numeric:normal;font-feature-settings:normal;text-align:start;writing-mode:lr-tb;text-anchor:start;fill:#0094ce;fill-opacity:1"
       id="path960"
       inkscape:connector-curvature="0" /></g><g
     aria-label="10"
     transform="matrix(0.76768601,0,0,0.76768601,-51.741236,83.976915)"
     style="font-style:normal;font-variant:normal;font-weight:normal;font-stretch:normal;font-size:13.33340263px;line-height:1.25;font-family:sans-serif;-inkscape-font-specification:'sans-serif, Normal';font-variant-ligatures:normal;font-variant-caps:normal;font-variant-numeric:normal;font-feature-settings:normal;text-align:start;letter-spacing:0px;word-spacing:0px;writing-mode:lr-tb;text-anchor:start;fill:#0094ce;fill-opacity:1;stroke:none"
     id="flowRoot1140"><path
       d="m 281.78061,119.98118 h 2.14845 v -7.41541 l -2.33726,0.46875 v -1.19792 l 2.32424,-0.46875 h 1.31511 v 8.61333 h 2.14844 v 1.10677 h -5.59898 z"
       style="font-style:normal;font-variant:normal;font-weight:normal;font-stretch:normal;font-size:13.33340263px;font-family:sans-serif;-inkscape-font-specification:'sans-serif, Normal';font-variant-ligatures:normal;font-variant-caps:normal;font-variant-numeric:normal;font-feature-settings:normal;text-align:start;writing-mode:lr-tb;text-anchor:start;fill:#0094ce;fill-opacity:1"
       id="path963" /><path
       d="m 292.84837,112.23374 q -1.01563,0 -1.52995,1.00261 -0.50782,0.9961 -0.50782,3.00132 0,1.9987 0.50782,3.00131 0.51432,0.9961 1.52995,0.9961 1.02214,0 1.52996,-0.9961 0.51432,-1.00261 0.51432,-3.00131 0,-2.00522 -0.51432,-3.00132 -0.50782,-1.00261 -1.52996,-1.00261 z m 0,-1.04167 q 1.63413,0 2.49351,1.29558 0.86589,1.28907 0.86589,3.75002 0,2.45444 -0.86589,3.75002 -0.85938,1.28907 -2.49351,1.28907 -1.63412,0 -2.50001,-1.28907 -0.85938,-1.29558 -0.85938,-3.75002 0,-2.46095 0.85938,-3.75002 0.86589,-1.29558 2.50001,-1.29558 z"
       style="font-style:normal;font-variant:normal;font-weight:normal;font-stretch:normal;font-size:13.33340263px;font-family:sans-serif;-inkscape-font-specification:'sans-serif, Normal';font-variant-ligatures:normal;font-variant-caps:normal;font-variant-numeric:normal;font-feature-settings:normal;text-align:start;writing-mode:lr-tb;text-anchor:start;fill:#0094ce;fill-opacity:1"
       id="path965" /></g><g
     aria-label="20"
     transform="matrix(1.8009223,0,0,1.8009223,-271.95751,-64.133368)"
     style="font-style:normal;font-variant:normal;font-weight:normal;font-stretch:normal;font-size:13.33340263px;line-height:1.25;font-family:sans-serif;-inkscape-font-specification:'sans-serif, Normal';font-variant-ligatures:normal;font-variant-caps:normal;font-variant-numeric:normal;font-feature-settings:normal;text-align:start;letter-spacing:0px;word-spacing:0px;writing-mode:lr-tb;text-anchor:start;fill:#0094ce;fill-opacity:1;stroke:none"
     id="flowRoot1148"><path
       d="m 282.68556,119.98118 h 4.58987 v 1.10677 h -6.17191 v -1.10677 q 0.7487,-0.77475 2.03777,-2.07684 1.29558,-1.3086 1.62761,-1.68621 0.63152,-0.70963 0.87892,-1.19792 0.2539,-0.49479 0.2539,-0.97006 0,-0.77474 -0.54688,-1.26302 -0.54036,-0.48829 -1.41276,-0.48829 -0.6185,0 -1.3086,0.21485 -0.6836,0.21484 -1.46485,0.65104 v -1.32813 q 0.79427,-0.31901 1.48438,-0.48177 0.69011,-0.16276 1.26303,-0.16276 1.51042,0 2.40886,0.75521 0.89844,0.75521 0.89844,2.01824 0,0.59896 -0.22786,1.13933 -0.22136,0.53385 -0.81381,1.26303 -0.16276,0.1888 -1.03516,1.09375 -0.8724,0.89844 -2.46095,2.51955 z"
       style="font-style:normal;font-variant:normal;font-weight:normal;font-stretch:normal;font-size:13.33340263px;font-family:sans-serif;-inkscape-font-specification:'sans-serif, Normal';font-variant-ligatures:normal;font-variant-caps:normal;font-variant-numeric:normal;font-feature-settings:normal;text-align:start;writing-mode:lr-tb;text-anchor:start;fill:#0094ce;fill-opacity:1"
       id="path968"
       inkscape:connector-curvature="0" /><path
       d="m 292.84837,112.23374 q -1.01563,0 -1.52995,1.00261 -0.50782,0.9961 -0.50782,3.00132 0,1.9987 0.50782,3.00131 0.51432,0.9961 1.52995,0.9961 1.02214,0 1.52996,-0.9961 0.51432,-1.00261 0.51432,-3.00131 0,-2.00522 -0.51432,-3.00132 -0.50782,-1.00261 -1.52996,-1.00261 z m 0,-1.04167 q 1.63413,0 2.49351,1.29558 0.86589,1.28907 0.86589,3.75002 0,2.45444 -0.86589,3.75002 -0.85938,1.28907 -2.49351,1.28907 -1.63412,0 -2.50001,-1.28907 -0.85938,-1.29558 -0.85938,-3.75002 0,-2.46095 0.85938,-3.75002 0.86589,-1.29558 2.50001,-1.29558 z"
       style="font-style:normal;font-variant:normal;font-weight:normal;font-stretch:normal;font-size:13.33340263px;font-family:sans-serif;-inkscape-font-specification:'sans-serif, Normal';font-variant-ligatures:normal;font-variant-caps:normal;font-variant-numeric:normal;font-feature-settings:normal;text-align:start;writing-mode:lr-tb;text-anchor:start;fill:#0094ce;fill-opacity:1"
       id="path970"
       inkscape:connector-curvature="0" /></g><g
     aria-label="20"
     transform="matrix(0.76768601,0,0,0.76768601,-61.679031,55.964251)"
     style="font-style:normal;font-variant:normal;font-weight:normal;font-stretch:normal;font-size:13.33340263px;line-height:1.25;font-family:sans-serif;-inkscape-font-specification:'sans-serif, Normal';font-variant-ligatures:normal;font-variant-caps:normal;font-variant-numeric:normal;font-feature-settings:normal;text-align:start;letter-spacing:0px;word-spacing:0px;writing-mode:lr-tb;text-anchor:start;fill:#0094ce;fill-opacity:1;stroke:none"
     id="flowRoot1156"><path
       d="m 282.68556,119.98118 h 4.58987 v 1.10677 h -6.17191 v -1.10677 q 0.7487,-0.77475 2.03777,-2.07684 1.29558,-1.3086 1.62761,-1.68621 0.63152,-0.70963 0.87892,-1.19792 0.2539,-0.49479 0.2539,-0.97006 0,-0.77474 -0.54688,-1.26302 -0.54036,-0.48829 -1.41276,-0.48829 -0.6185,0 -1.3086,0.21485 -0.6836,0.21484 -1.46485,0.65104 v -1.32813 q 0.79427,-0.31901 1.48438,-0.48177 0.69011,-0.16276 1.26303,-0.16276 1.51042,0 2.40886,0.75521 0.89844,0.75521 0.89844,2.01824 0,0.59896 -0.22786,1.13933 -0.22136,0.53385 -0.81381,1.26303 -0.16276,0.1888 -1.03516,1.09375 -0.8724,0.89844 -2.46095,2.51955 z"
       style="font-style:normal;font-variant:normal;font-weight:normal;font-stretch:normal;font-size:13.33340263px;font-family:sans-serif;-inkscape-font-specification:'sans-serif, Normal';font-variant-ligatures:normal;font-variant-caps:normal;font-variant-numeric:normal;font-feature-settings:normal;text-align:start;writing-mode:lr-tb;text-anchor:start;fill:#0094ce;fill-opacity:1"
       id="path973" /><path
       d="m 292.84837,112.23374 q -1.01563,0 -1.52995,1.00261 -0.50782,0.9961 -0.50782,3.00132 0,1.9987 0.50782,3.00131 0.51432,0.9961 1.52995,0.9961 1.02214,0 1.52996,-0.9961 0.51432,-1.00261 0.51432,-3.00131 0,-2.00522 -0.51432,-3.00132 -0.50782,-1.00261 -1.52996,-1.00261 z m 0,-1.04167 q 1.63413,0 2.49351,1.29558 0.86589,1.28907 0.86589,3.75002 0,2.45444 -0.86589,3.75002 -0.85938,1.28907 -2.49351,1.28907 -1.63412,0 -2.50001,-1.28907 -0.85938,-1.29558 -0.85938,-3.75002 0,-2.46095 0.85938,-3.75002 0.86589,-1.29558 2.50001,-1.29558 z"
       style="font-style:normal;font-variant:normal;font-weight:normal;font-stretch:normal;font-size:13.33340263px;font-family:sans-serif;-inkscape-font-specification:'sans-serif, Normal';font-variant-ligatures:normal;font-variant-caps:normal;font-variant-numeric:normal;font-feature-settings:normal;text-align:start;writing-mode:lr-tb;text-anchor:start;fill:#0094ce;fill-opacity:1"
       id="path975" /></g><g
     id="g1211"><g
       transform="translate(0,-3.2389363)"
       id="g1100"><path
         style="fill:none;stroke:#0094ce;stroke-width:2;stroke-miterlimit:10;stroke-opacity:1"
         d="m 187.979,134.53192 h 25"
         id="line1088" /><path
         style="fill:none;stroke:#0094ce;stroke-width:2;stroke-miterlimit:10;stroke-opacity:1"
         d="m 188.16701,106.53192 h 25"
         id="line1090" /><path
         style="fill:none;stroke:#0094ce;stroke-width:2;stroke-miterlimit:10;stroke-opacity:1"
         d="m 180.04201,120.56293 h 40"
         id="line1092" /><path
         style="fill:none;stroke:#0094ce;stroke-width:2;stroke-miterlimit:10;stroke-opacity:1"
         d="m 170.04201,92.490921 h 60"
         id="line1094" /></g><g
       aria-label="40"
       transform="matrix(0.76768601,0,0,0.76768601,17.738552,-0.48551143)"
       style="font-style:normal;font-variant:normal;font-weight:normal;font-stretch:normal;font-size:13.33340263px;line-height:1.25;font-family:sans-serif;-inkscape-font-specification:'sans-serif, Normal';font-variant-ligatures:normal;font-variant-caps:normal;font-variant-numeric:normal;font-feature-settings:normal;text-align:start;letter-spacing:0px;word-spacing:0px;writing-mode:lr-tb;text-anchor:start;fill:#0094ce;fill-opacity:1;stroke:none"
       id="flowRoot1164"><path
         d="m 285.16604,112.51369 -3.32033,5.18883 h 3.32033 z m -0.34505,-1.14584 h 1.65365 v 6.33467 h 1.38673 v 1.09375 h -1.38673 v 2.29168 h -1.3086 v -2.29168 H 280.778 v -1.26953 z"
         style="font-style:normal;font-variant:normal;font-weight:normal;font-stretch:normal;font-size:13.33340263px;font-family:sans-serif;-inkscape-font-specification:'sans-serif, Normal';font-variant-ligatures:normal;font-variant-caps:normal;font-variant-numeric:normal;font-feature-settings:normal;text-align:start;writing-mode:lr-tb;text-anchor:start;fill:#0094ce;fill-opacity:1"
         id="path982" /><path
         d="m 292.84837,112.23374 q -1.01563,0 -1.52995,1.00261 -0.50782,0.9961 -0.50782,3.00132 0,1.9987 0.50782,3.00131 0.51432,0.9961 1.52995,0.9961 1.02214,0 1.52996,-0.9961 0.51432,-1.00261 0.51432,-3.00131 0,-2.00522 -0.51432,-3.00132 -0.50782,-1.00261 -1.52996,-1.00261 z m 0,-1.04167 q 1.63413,0 2.49351,1.29558 0.86589,1.28907 0.86589,3.75002 0,2.45444 -0.86589,3.75002 -0.85938,1.28907 -2.49351,1.28907 -1.63412,0 -2.50001,-1.28907 -0.85938,-1.29558 -0.85938,-3.75002 0,-2.46095 0.85938,-3.75002 0.86589,-1.29558 2.50001,-1.29558 z"
         style="font-style:normal;font-variant:normal;font-weight:normal;font-stretch:normal;font-size:13.33340263px;font-family:sans-serif;-inkscape-font-specification:'sans-serif, Normal';font-variant-ligatures:normal;font-variant-caps:normal;font-variant-numeric:normal;font-feature-settings:normal;text-align:start;writing-mode:lr-tb;text-anchor:start;fill:#0094ce;fill-opacity:1"
         id="path984" /></g><g
       aria-label="40"
       transform="matrix(0.76768601,0,0,0.76768601,-61.979152,-0.48551143)"
       style="font-style:normal;font-variant:normal;font-weight:normal;font-stretch:normal;font-size:13.33340263px;line-height:1.25;font-family:sans-serif;-inkscape-font-specification:'sans-serif, Normal';font-variant-ligatures:normal;font-variant-caps:normal;font-variant-numeric:normal;font-feature-settings:normal;text-align:start;letter-spacing:0px;word-spacing:0px;writing-mode:lr-tb;text-anchor:start;fill:#0094ce;fill-opacity:1;stroke:none"
       id="flowRoot1172"><path
         d="m 285.16604,112.51369 -3.32033,5.18883 h 3.32033 z m -0.34505,-1.14584 h 1.65365 v 6.33467 h 1.38673 v 1.09375 h -1.38673 v 2.29168 h -1.3086 v -2.29168 H 280.778 v -1.26953 z"
         style="font-style:normal;font-variant:normal;font-weight:normal;font-stretch:normal;font-size:13.33340263px;font-family:sans-serif;-inkscape-font-specification:'sans-serif, Normal';font-variant-ligatures:normal;font-variant-caps:normal;font-variant-numeric:normal;font-feature-settings:normal;text-align:start;writing-mode:lr-tb;text-anchor:start;fill:#0094ce;fill-opacity:1"
         id="path987" /><path
         d="m 292.84837,112.23374 q -1.01563,0 -1.52995,1.00261 -0.50782,0.9961 -0.50782,3.00132 0,1.9987 0.50782,3.00131 0.51432,0.9961 1.52995,0.9961 1.02214,0 1.52996,-0.9961 0.51432,-1.00261 0.51432,-3.00131 0,-2.00522 -0.51432,-3.00132 -0.50782,-1.00261 -1.52996,-1.00261 z m 0,-1.04167 q 1.63413,0 2.49351,1.29558 0.86589,1.28907 0.86589,3.75002 0,2.45444 -0.86589,3.75002 -0.85938,1.28907 -2.49351,1.28907 -1.63412,0 -2.50001,-1.28907 -0.85938,-1.29558 -0.85938,-3.75002 0,-2.46095 0.85938,-3.75002 0.86589,-1.29558 2.50001,-1.29558 z"
         style="font-style:normal;font-variant:normal;font-weight:normal;font-stretch:normal;font-size:13.33340263px;font-family:sans-serif;-inkscape-font-specification:'sans-serif, Normal';font-variant-ligatures:normal;font-variant-caps:normal;font-variant-numeric:normal;font-feature-settings:normal;text-align:start;writing-mode:lr-tb;text-anchor:start;fill:#0094ce;fill-opacity:1"
         id="path989" /></g><g
       aria-label="30"
       transform="matrix(0.76768601,0,0,0.76768601,7.720394,27.739369)"
       style="font-style:normal;font-variant:normal;font-weight:normal;font-stretch:normal;font-size:13.33340263px;line-height:1.25;font-family:sans-serif;-inkscape-font-specification:'sans-serif, Normal';font-variant-ligatures:normal;font-variant-caps:normal;font-variant-numeric:normal;font-feature-settings:normal;text-align:start;letter-spacing:0px;word-spacing:0px;writing-mode:lr-tb;text-anchor:start;fill:#0094ce;fill-opacity:1;stroke:none"
       id="flowRoot1180"><path
         d="m 285.53714,115.84704 q 0.94401,0.20182 1.47136,0.83985 0.53386,0.63802 0.53386,1.57553 0,1.43881 -0.98959,2.22657 -0.98959,0.78777 -2.81252,0.78777 -0.61198,0 -1.26302,-0.1237 -0.64454,-0.11719 -1.33465,-0.35808 v -1.26954 q 0.54688,0.31902 1.19793,0.48178 0.65104,0.16276 1.36068,0.16276 1.23699,0 1.88152,-0.48829 0.65105,-0.48828 0.65105,-1.41927 0,-0.85938 -0.60548,-1.34116 -0.59896,-0.48828 -1.67318,-0.48828 h -1.13282 v -1.08073 h 1.1849 q 0.97006,0 1.48438,-0.38412 0.51433,-0.39063 0.51433,-1.1198 0,-0.7487 -0.53386,-1.14584 -0.52734,-0.40365 -1.51693,-0.40365 -0.54037,0 -1.15886,0.11719 -0.61849,0.11719 -1.36069,0.36459 v -1.17188 q 0.74871,-0.20834 1.39975,-0.31251 0.65756,-0.10416 1.23699,-0.10416 1.4974,0 2.3698,0.68359 0.8724,0.67709 0.8724,1.83595 0,0.8073 -0.46224,1.3672 -0.46224,0.55338 -1.31511,0.76823 z"
         style="font-style:normal;font-variant:normal;font-weight:normal;font-stretch:normal;font-size:13.33340263px;font-family:sans-serif;-inkscape-font-specification:'sans-serif, Normal';font-variant-ligatures:normal;font-variant-caps:normal;font-variant-numeric:normal;font-feature-settings:normal;text-align:start;writing-mode:lr-tb;text-anchor:start;fill:#0094ce;fill-opacity:1"
         id="path992" /><path
         d="m 292.84837,112.23374 q -1.01563,0 -1.52995,1.00261 -0.50782,0.9961 -0.50782,3.00132 0,1.9987 0.50782,3.00131 0.51432,0.9961 1.52995,0.9961 1.02214,0 1.52996,-0.9961 0.51432,-1.00261 0.51432,-3.00131 0,-2.00522 -0.51432,-3.00132 -0.50782,-1.00261 -1.52996,-1.00261 z m 0,-1.04167 q 1.63413,0 2.49351,1.29558 0.86589,1.28907 0.86589,3.75002 0,2.45444 -0.86589,3.75002 -0.85938,1.28907 -2.49351,1.28907 -1.63412,0 -2.50001,-1.28907 -0.85938,-1.29558 -0.85938,-3.75002 0,-2.46095 0.85938,-3.75002 0.86589,-1.29558 2.50001,-1.29558 z"
         style="font-style:normal;font-variant:normal;font-weight:normal;font-stretch:normal;font-size:13.33340263px;font-family:sans-serif;-inkscape-font-specification:'sans-serif, Normal';font-variant-ligatures:normal;font-variant-caps:normal;font-variant-numeric:normal;font-feature-settings:normal;text-align:start;writing-mode:lr-tb;text-anchor:start;fill:#0094ce;fill-opacity:1"
         id="path994" /></g><g
       aria-label="30"
       transform="matrix(0.76768601,0,0,0.76768601,-50.240634,27.739369)"
       style="font-style:normal;font-variant:normal;font-weight:normal;font-stretch:normal;font-size:13.33340263px;line-height:1.25;font-family:sans-serif;-inkscape-font-specification:'sans-serif, Normal';font-variant-ligatures:normal;font-variant-caps:normal;font-variant-numeric:normal;font-feature-settings:normal;text-align:start;letter-spacing:0px;word-spacing:0px;writing-mode:lr-tb;text-anchor:start;fill:#0094ce;fill-opacity:1;stroke:none"
       id="flowRoot1188"><path
         d="m 285.53714,115.84704 q 0.94401,0.20182 1.47136,0.83985 0.53386,0.63802 0.53386,1.57553 0,1.43881 -0.98959,2.22657 -0.98959,0.78777 -2.81252,0.78777 -0.61198,0 -1.26302,-0.1237 -0.64454,-0.11719 -1.33465,-0.35808 v -1.26954 q 0.54688,0.31902 1.19793,0.48178 0.65104,0.16276 1.36068,0.16276 1.23699,0 1.88152,-0.48829 0.65105,-0.48828 0.65105,-1.41927 0,-0.85938 -0.60548,-1.34116 -0.59896,-0.48828 -1.67318,-0.48828 h -1.13282 v -1.08073 h 1.1849 q 0.97006,0 1.48438,-0.38412 0.51433,-0.39063 0.51433,-1.1198 0,-0.7487 -0.53386,-1.14584 -0.52734,-0.40365 -1.51693,-0.40365 -0.54037,0 -1.15886,0.11719 -0.61849,0.11719 -1.36069,0.36459 v -1.17188 q 0.74871,-0.20834 1.39975,-0.31251 0.65756,-0.10416 1.23699,-0.10416 1.4974,0 2.3698,0.68359 0.8724,0.67709 0.8724,1.83595 0,0.8073 -0.46224,1.3672 -0.46224,0.55338 -1.31511,0.76823 z"
         style="font-style:normal;font-variant:normal;font-weight:normal;font-stretch:normal;font-size:13.33340263px;font-family:sans-serif;-inkscape-font-specification:'sans-serif, Normal';font-variant-ligatures:normal;font-variant-caps:normal;font-variant-numeric:normal;font-feature-settings:normal;text-align:start;writing-mode:lr-tb;text-anchor:start;fill:#0094ce;fill-opacity:1"
         id="path997" /><path
         d="m 292.84837,112.23374 q -1.01563,0 -1.52995,1.00261 -0.50782,0.9961 -0.50782,3.00132 0,1.9987 0.50782,3.00131 0.51432,0.9961 1.52995,0.9961 1.02214,0 1.52996,-0.9961 0.51432,-1.00261 0.51432,-3.00131 0,-2.00522 -0.51432,-3.00132 -0.50782,-1.00261 -1.52996,-1.00261 z m 0,-1.04167 q 1.63413,0 2.49351,1.29558 0.86589,1.28907 0.86589,3.75002 0,2.45444 -0.86589,3.75002 -0.85938,1.28907 -2.49351,1.28907 -1.63412,0 -2.50001,-1.28907 -0.85938,-1.29558 -0.85938,-3.75002 0,-2.46095 0.85938,-3.75002 0.86589,-1.29558 2.50001,-1.29558 z"
         style="font-style:normal;font-variant:normal;font-weight:normal;font-stretch:normal;font-size:13.33340263px;font-family:sans-serif;-inkscape-font-specification:'sans-serif, Normal';font-variant-ligatures:normal;font-variant-caps:normal;font-variant-numeric:normal;font-feature-settings:normal;text-align:start;writing-mode:lr-tb;text-anchor:start;fill:#0094ce;fill-opacity:1"
         id="path999" /></g></g><g
     id="g1255"
     transform="translate(0,-56.059)"><g
       id="g1221"
       transform="translate(0,-3.2389363)"><path
         style="fill:none;stroke:#0094ce;stroke-width:2;stroke-miterlimit:10;stroke-opacity:1"
         d="m 187.979,134.53192 h 25"
         id="line1213" /><path
         style="fill:none;stroke:#0094ce;stroke-width:2;stroke-miterlimit:10;stroke-opacity:1"
         d="m 188.16701,106.53192 h 25"
         id="line1215" /><path
         style="fill:none;stroke:#0094ce;stroke-width:2;stroke-miterlimit:10;stroke-opacity:1"
         d="m 180.04201,120.56293 h 40"
         id="line1217" /><path
         style="fill:none;stroke:#0094ce;stroke-width:2;stroke-miterlimit:10;stroke-opacity:1"
         d="m 170.04201,92.490921 h 60"
         id="line1219" /></g><g
       aria-label="60"
       transform="matrix(0.76768601,0,0,0.76768601,17.138311,-0.48551143)"
       style="font-style:normal;font-variant:normal;font-weight:normal;font-stretch:normal;font-size:13.33340263px;line-height:1.25;font-family:sans-serif;-inkscape-font-specification:'sans-serif, Normal';font-variant-ligatures:normal;font-variant-caps:normal;font-variant-numeric:normal;font-feature-settings:normal;text-align:start;letter-spacing:0px;word-spacing:0px;writing-mode:lr-tb;text-anchor:start;fill:#0094ce;fill-opacity:1;stroke:none"
       id="flowRoot1229"><path
         d="m 284.52802,115.70381 q -0.88542,0 -1.40626,0.60547 -0.51433,0.60547 -0.51433,1.66017 0,1.04818 0.51433,1.66016 0.52084,0.60547 1.40626,0.60547 0.88542,0 1.39974,-0.60547 0.52084,-0.61198 0.52084,-1.66016 0,-1.0547 -0.52084,-1.66017 -0.51432,-0.60547 -1.39974,-0.60547 z m 2.61069,-4.12112 v 1.19793 q -0.4948,-0.23438 -1.00261,-0.35808 -0.50131,-0.1237 -0.9961,-0.1237 -1.30209,0 -1.9922,0.87891 -0.6836,0.87892 -0.78125,2.65627 0.38411,-0.56641 0.96354,-0.86589 0.57943,-0.30599 1.27605,-0.30599 1.46485,0 2.31121,0.89193 0.85287,0.88542 0.85287,2.41538 0,1.4974 -0.88542,2.40235 -0.88542,0.90496 -2.35678,0.90496 -1.68621,0 -2.57814,-1.28907 -0.89193,-1.29558 -0.89193,-3.75002 0,-2.3047 1.09375,-3.6719 1.09376,-1.3737 2.93622,-1.3737 0.49479,0 0.9961,0.0977 0.50781,0.0977 1.05469,0.29297 z"
         style="font-style:normal;font-variant:normal;font-weight:normal;font-stretch:normal;font-size:13.33340263px;font-family:sans-serif;-inkscape-font-specification:'sans-serif, Normal';font-variant-ligatures:normal;font-variant-caps:normal;font-variant-numeric:normal;font-feature-settings:normal;text-align:start;writing-mode:lr-tb;text-anchor:start;fill:#0094ce;fill-opacity:1"
         id="path1006" /><path
         d="m 292.84837,112.23374 q -1.01563,0 -1.52995,1.00261 -0.50782,0.9961 -0.50782,3.00132 0,1.9987 0.50782,3.00131 0.51432,0.9961 1.52995,0.9961 1.02214,0 1.52996,-0.9961 0.51432,-1.00261 0.51432,-3.00131 0,-2.00522 -0.51432,-3.00132 -0.50782,-1.00261 -1.52996,-1.00261 z m 0,-1.04167 q 1.63413,0 2.49351,1.29558 0.86589,1.28907 0.86589,3.75002 0,2.45444 -0.86589,3.75002 -0.85938,1.28907 -2.49351,1.28907 -1.63412,0 -2.50001,-1.28907 -0.85938,-1.29558 -0.85938,-3.75002 0,-2.46095 0.85938,-3.75002 0.86589,-1.29558 2.50001,-1.29558 z"
         style="font-style:normal;font-variant:normal;font-weight:normal;font-stretch:normal;font-size:13.33340263px;font-family:sans-serif;-inkscape-font-specification:'sans-serif, Normal';font-variant-ligatures:normal;font-variant-caps:normal;font-variant-numeric:normal;font-feature-settings:normal;text-align:start;writing-mode:lr-tb;text-anchor:start;fill:#0094ce;fill-opacity:1"
         id="path1008" /></g><g
       aria-label="60"
       transform="matrix(0.76768601,0,0,0.76768601,-61.378911,-0.48551143)"
       style="font-style:normal;font-variant:normal;font-weight:normal;font-stretch:normal;font-size:13.33340263px;line-height:1.25;font-family:sans-serif;-inkscape-font-specification:'sans-serif, Normal';font-variant-ligatures:normal;font-variant-caps:normal;font-variant-numeric:normal;font-feature-settings:normal;text-align:start;letter-spacing:0px;word-spacing:0px;writing-mode:lr-tb;text-anchor:start;fill:#0094ce;fill-opacity:1;stroke:none"
       id="flowRoot1237"><path
         d="m 284.52802,115.70381 q -0.88542,0 -1.40626,0.60547 -0.51433,0.60547 -0.51433,1.66017 0,1.04818 0.51433,1.66016 0.52084,0.60547 1.40626,0.60547 0.88542,0 1.39974,-0.60547 0.52084,-0.61198 0.52084,-1.66016 0,-1.0547 -0.52084,-1.66017 -0.51432,-0.60547 -1.39974,-0.60547 z m 2.61069,-4.12112 v 1.19793 q -0.4948,-0.23438 -1.00261,-0.35808 -0.50131,-0.1237 -0.9961,-0.1237 -1.30209,0 -1.9922,0.87891 -0.6836,0.87892 -0.78125,2.65627 0.38411,-0.56641 0.96354,-0.86589 0.57943,-0.30599 1.27605,-0.30599 1.46485,0 2.31121,0.89193 0.85287,0.88542 0.85287,2.41538 0,1.4974 -0.88542,2.40235 -0.88542,0.90496 -2.35678,0.90496 -1.68621,0 -2.57814,-1.28907 -0.89193,-1.29558 -0.89193,-3.75002 0,-2.3047 1.09375,-3.6719 1.09376,-1.3737 2.93622,-1.3737 0.49479,0 0.9961,0.0977 0.50781,0.0977 1.05469,0.29297 z"
         style="font-style:normal;font-variant:normal;font-weight:normal;font-stretch:normal;font-size:13.33340263px;font-family:sans-serif;-inkscape-font-specification:'sans-serif, Normal';font-variant-ligatures:normal;font-variant-caps:normal;font-variant-numeric:normal;font-feature-settings:normal;text-align:start;writing-mode:lr-tb;text-anchor:start;fill:#0094ce;fill-opacity:1"
         id="path1011" /><path
         d="m 292.84837,112.23374 q -1.01563,0 -1.52995,1.00261 -0.50782,0.9961 -0.50782,3.00132 0,1.9987 0.50782,3.00131 0.51432,0.9961 1.52995,0.9961 1.02214,0 1.52996,-0.9961 0.51432,-1.00261 0.51432,-3.00131 0,-2.00522 -0.51432,-3.00132 -0.50782,-1.00261 -1.52996,-1.00261 z m 0,-1.04167 q 1.63413,0 2.49351,1.29558 0.86589,1.28907 0.86589,3.75002 0,2.45444 -0.86589,3.75002 -0.85938,1.28907 -2.49351,1.28907 -1.63412,0 -2.50001,-1.28907 -0.85938,-1.29558 -0.85938,-3.75002 0,-2.46095 0.85938,-3.75002 0.86589,-1.29558 2.50001,-1.29558 z"
         style="font-style:normal;font-variant:normal;font-weight:normal;font-stretch:normal;font-size:13.33340263px;font-family:sans-serif;-inkscape-font-specification:'sans-serif, Normal';font-variant-ligatures:normal;font-variant-caps:normal;font-variant-numeric:normal;font-feature-settings:normal;text-align:start;writing-mode:lr-tb;text-anchor:start;fill:#0094ce;fill-opacity:1"
         id="path1013" /></g><g
       aria-label="50"
       transform="matrix(0.76768601,0,0,0.76768601,7.2702134,27.739369)"
       style="font-style:normal;font-variant:normal;font-weight:normal;font-stretch:normal;font-size:13.33340263px;line-height:1.25;font-family:sans-serif;-inkscape-font-specification:'sans-serif, Normal';font-variant-ligatures:normal;font-variant-caps:normal;font-variant-numeric:normal;font-feature-settings:normal;text-align:start;letter-spacing:0px;word-spacing:0px;writing-mode:lr-tb;text-anchor:start;fill:#0094ce;fill-opacity:1;stroke:none"
       id="flowRoot1245"><path
         d="m 281.56576,111.36785 h 5.16279 v 1.10678 h -3.95835 v 2.38282 q 0.28646,-0.0977 0.57292,-0.14323 0.28646,-0.0521 0.57292,-0.0521 1.62761,0 2.57813,0.89193 0.95053,0.89193 0.95053,2.41538 0,1.56901 -0.97657,2.44142 -0.97657,0.86589 -2.75392,0.86589 -0.61198,0 -1.25001,-0.10417 -0.63151,-0.10417 -1.3086,-0.3125 v -1.32163 q 0.58594,0.31902 1.21095,0.47527 0.625,0.15625 1.32162,0.15625 1.12631,0 1.78386,-0.59245 0.65756,-0.59245 0.65756,-1.60808 0,-1.01563 -0.65756,-1.60809 -0.65755,-0.59245 -1.78386,-0.59245 -0.52735,0 -1.05469,0.11719 -0.52084,0.11719 -1.06772,0.36459 z"
         style="font-style:normal;font-variant:normal;font-weight:normal;font-stretch:normal;font-size:13.33340263px;font-family:sans-serif;-inkscape-font-specification:'sans-serif, Normal';font-variant-ligatures:normal;font-variant-caps:normal;font-variant-numeric:normal;font-feature-settings:normal;text-align:start;writing-mode:lr-tb;text-anchor:start;fill:#0094ce;fill-opacity:1"
         id="path1016" /><path
         d="m 292.84837,112.23374 q -1.01563,0 -1.52995,1.00261 -0.50782,0.9961 -0.50782,3.00132 0,1.9987 0.50782,3.00131 0.51432,0.9961 1.52995,0.9961 1.02214,0 1.52996,-0.9961 0.51432,-1.00261 0.51432,-3.00131 0,-2.00522 -0.51432,-3.00132 -0.50782,-1.00261 -1.52996,-1.00261 z m 0,-1.04167 q 1.63413,0 2.49351,1.29558 0.86589,1.28907 0.86589,3.75002 0,2.45444 -0.86589,3.75002 -0.85938,1.28907 -2.49351,1.28907 -1.63412,0 -2.50001,-1.28907 -0.85938,-1.29558 -0.85938,-3.75002 0,-2.46095 0.85938,-3.75002 0.86589,-1.29558 2.50001,-1.29558 z"
         style="font-style:normal;font-variant:normal;font-weight:normal;font-stretch:normal;font-size:13.33340263px;font-family:sans-serif;-inkscape-font-specification:'sans-serif, Normal';font-variant-ligatures:normal;font-variant-caps:normal;font-variant-numeric:normal;font-feature-settings:normal;text-align:start;writing-mode:lr-tb;text-anchor:start;fill:#0094ce;fill-opacity:1"
         id="path1018" /></g><g
       aria-label="50"
       transform="matrix(0.76768601,0,0,0.76768601,-50.240634,27.739369)"
       style="font-style:normal;font-variant:normal;font-weight:normal;font-stretch:normal;font-size:13.33340263px;line-height:1.25;font-family:sans-serif;-inkscape-font-specification:'sans-serif, Normal';font-variant-ligatures:normal;font-variant-caps:normal;font-variant-numeric:normal;font-feature-settings:normal;text-align:start;letter-spacing:0px;word-spacing:0px;writing-mode:lr-tb;text-anchor:start;fill:#0094ce;fill-opacity:1;stroke:none"
       id="flowRoot1253"><path
         d="m 281.56576,111.36785 h 5.16279 v 1.10678 h -3.95835 v 2.38282 q 0.28646,-0.0977 0.57292,-0.14323 0.28646,-0.0521 0.57292,-0.0521 1.62761,0 2.57813,0.89193 0.95053,0.89193 0.95053,2.41538 0,1.56901 -0.97657,2.44142 -0.97657,0.86589 -2.75392,0.86589 -0.61198,0 -1.25001,-0.10417 -0.63151,-0.10417 -1.3086,-0.3125 v -1.32163 q 0.58594,0.31902 1.21095,0.47527 0.625,0.15625 1.32162,0.15625 1.12631,0 1.78386,-0.59245 0.65756,-0.59245 0.65756,-1.60808 0,-1.01563 -0.65756,-1.60809 -0.65755,-0.59245 -1.78386,-0.59245 -0.52735,0 -1.05469,0.11719 -0.52084,0.11719 -1.06772,0.36459 z"
         style="font-style:normal;font-variant:normal;font-weight:normal;font-stretch:normal;font-size:13.33340263px;font-family:sans-serif;-inkscape-font-specification:'sans-serif, Normal';font-variant-ligatures:normal;font-variant-caps:normal;font-variant-numeric:normal;font-feature-settings:normal;text-align:start;writing-mode:lr-tb;text-anchor:start;fill:#0094ce;fill-opacity:1"
         id="path1021" /><path
         d="m 292.84837,112.23374 q -1.01563,0 -1.52995,1.00261 -0.50782,0.9961 -0.50782,3.00132 0,1.9987 0.50782,3.00131 0.51432,0.9961 1.52995,0.9961 1.02214,0 1.52996,-0.9961 0.51432,-1.00261 0.51432,-3.00131 0,-2.00522 -0.51432,-3.00132 -0.50782,-1.00261 -1.52996,-1.00261 z m 0,-1.04167 q 1.63413,0 2.49351,1.29558 0.86589,1.28907 0.86589,3.75002 0,2.45444 -0.86589,3.75002 -0.85938,1.28907 -2.49351,1.28907 -1.63412,0 -2.50001,-1.28907 -0.85938,-1.29558 -0.85938,-3.75002 0,-2.46095 0.85938,-3.75002 0.86589,-1.29558 2.50001,-1.29558 z"
         style="font-style:normal;font-variant:normal;font-weight:normal;font-stretch:normal;font-size:13.33340263px;font-family:sans-serif;-inkscape-font-specification:'sans-serif, Normal';font-variant-ligatures:normal;font-variant-caps:normal;font-variant-numeric:normal;font-feature-settings:normal;text-align:start;writing-mode:lr-tb;text-anchor:start;fill:#0094ce;fill-opacity:1"
         id="path1023" /></g></g><g
     id="g1299"
     transform="rotate(180,200.5965,200.35203)"><g
       id="g1265"
       transform="translate(0,-3.2389363)"><path
         style="fill:none;stroke:#0094ce;stroke-width:2;stroke-miterlimit:10;stroke-opacity:1"
         d="m 187.979,134.53192 h 25"
         id="line1257" /><path
         style="fill:none;stroke:#0094ce;stroke-width:2;stroke-miterlimit:10;stroke-opacity:1"
         d="m 188.16701,106.53192 h 25"
         id="line1259" /><path
         style="fill:none;stroke:#0094ce;stroke-width:2;stroke-miterlimit:10;stroke-opacity:1"
         d="m 180.04201,120.56293 h 40"
         id="line1261" /><path
         style="fill:none;stroke:#0094ce;stroke-width:2;stroke-miterlimit:10;stroke-opacity:1"
         d="m 170.04201,92.490921 h 60"
         id="line1263" /></g><g
       aria-label="40"
       transform="matrix(-0.76768601,0,0,-0.76768601,463.08341,177.97755)"
       style="font-style:normal;font-variant:normal;font-weight:normal;font-stretch:normal;font-size:13.33340263px;line-height:1.25;font-family:sans-serif;-inkscape-font-specification:'sans-serif, Normal';font-variant-ligatures:normal;font-variant-caps:normal;font-variant-numeric:normal;font-feature-settings:normal;text-align:start;letter-spacing:0px;word-spacing:0px;writing-mode:lr-tb;text-anchor:start;fill:#0094ce;fill-opacity:1;stroke:none"
       id="flowRoot1273"><path
         d="m 285.16604,112.51369 -3.32033,5.18883 h 3.32033 z m -0.34505,-1.14584 h 1.65365 v 6.33467 h 1.38673 v 1.09375 h -1.38673 v 2.29168 h -1.3086 v -2.29168 H 280.778 v -1.26953 z"
         style="font-style:normal;font-variant:normal;font-weight:normal;font-stretch:normal;font-size:13.33340263px;font-family:sans-serif;-inkscape-font-specification:'sans-serif, Normal';font-variant-ligatures:normal;font-variant-caps:normal;font-variant-numeric:normal;font-feature-settings:normal;text-align:start;writing-mode:lr-tb;text-anchor:start;fill:#0094ce;fill-opacity:1"
         id="path1030" /><path
         d="m 292.84837,112.23374 q -1.01563,0 -1.52995,1.00261 -0.50782,0.9961 -0.50782,3.00132 0,1.9987 0.50782,3.00131 0.51432,0.9961 1.52995,0.9961 1.02214,0 1.52996,-0.9961 0.51432,-1.00261 0.51432,-3.00131 0,-2.00522 -0.51432,-3.00132 -0.50782,-1.00261 -1.52996,-1.00261 z m 0,-1.04167 q 1.63413,0 2.49351,1.29558 0.86589,1.28907 0.86589,3.75002 0,2.45444 -0.86589,3.75002 -0.85938,1.28907 -2.49351,1.28907 -1.63412,0 -2.50001,-1.28907 -0.85938,-1.29558 -0.85938,-3.75002 0,-2.46095 0.85938,-3.75002 0.86589,-1.29558 2.50001,-1.29558 z"
         style="font-style:normal;font-variant:normal;font-weight:normal;font-stretch:normal;font-size:13.33340263px;font-family:sans-serif;-inkscape-font-specification:'sans-serif, Normal';font-variant-ligatures:normal;font-variant-caps:normal;font-variant-numeric:normal;font-feature-settings:normal;text-align:start;writing-mode:lr-tb;text-anchor:start;fill:#0094ce;fill-opacity:1"
         id="path1032" /></g><g
       aria-label="40"
       transform="matrix(-0.76768601,0,0,-0.76768601,383.36571,177.97755)"
       style="font-style:normal;font-variant:normal;font-weight:normal;font-stretch:normal;font-size:13.33340263px;line-height:1.25;font-family:sans-serif;-inkscape-font-specification:'sans-serif, Normal';font-variant-ligatures:normal;font-variant-caps:normal;font-variant-numeric:normal;font-feature-settings:normal;text-align:start;letter-spacing:0px;word-spacing:0px;writing-mode:lr-tb;text-anchor:start;fill:#0094ce;fill-opacity:1;stroke:none"
       id="flowRoot1281"><path
         d="m 285.16604,112.51369 -3.32033,5.18883 h 3.32033 z m -0.34505,-1.14584 h 1.65365 v 6.33467 h 1.38673 v 1.09375 h -1.38673 v 2.29168 h -1.3086 v -2.29168 H 280.778 v -1.26953 z"
         style="font-style:normal;font-variant:normal;font-weight:normal;font-stretch:normal;font-size:13.33340263px;font-family:sans-serif;-inkscape-font-specification:'sans-serif, Normal';font-variant-ligatures:normal;font-variant-caps:normal;font-variant-numeric:normal;font-feature-settings:normal;text-align:start;writing-mode:lr-tb;text-anchor:start;fill:#0094ce;fill-opacity:1"
         id="path1035" /><path
         d="m 292.84837,112.23374 q -1.01563,0 -1.52995,1.00261 -0.50782,0.9961 -0.50782,3.00132 0,1.9987 0.50782,3.00131 0.51432,0.9961 1.52995,0.9961 1.02214,0 1.52996,-0.9961 0.51432,-1.00261 0.51432,-3.00131 0,-2.00522 -0.51432,-3.00132 -0.50782,-1.00261 -1.52996,-1.00261 z m 0,-1.04167 q 1.63413,0 2.49351,1.29558 0.86589,1.28907 0.86589,3.75002 0,2.45444 -0.86589,3.75002 -0.85938,1.28907 -2.49351,1.28907 -1.63412,0 -2.50001,-1.28907 -0.85938,-1.29558 -0.85938,-3.75002 0,-2.46095 0.85938,-3.75002 0.86589,-1.29558 2.50001,-1.29558 z"
         style="font-style:normal;font-variant:normal;font-weight:normal;font-stretch:normal;font-size:13.33340263px;font-family:sans-serif;-inkscape-font-specification:'sans-serif, Normal';font-variant-ligatures:normal;font-variant-caps:normal;font-variant-numeric:normal;font-feature-settings:normal;text-align:start;writing-mode:lr-tb;text-anchor:start;fill:#0094ce;fill-opacity:1"
         id="path1037" /></g><g
       aria-label="30"
       transform="matrix(-0.76768601,0,0,-0.76768601,452.89496,206.20243)"
       style="font-style:normal;font-variant:normal;font-weight:normal;font-stretch:normal;font-size:13.33340263px;line-height:1.25;font-family:sans-serif;-inkscape-font-specification:'sans-serif, Normal';font-variant-ligatures:normal;font-variant-caps:normal;font-variant-numeric:normal;font-feature-settings:normal;text-align:start;letter-spacing:0px;word-spacing:0px;writing-mode:lr-tb;text-anchor:start;fill:#0094ce;fill-opacity:1;stroke:none"
       id="flowRoot1289"><path
         d="m 285.53714,115.84704 q 0.94401,0.20182 1.47136,0.83985 0.53386,0.63802 0.53386,1.57553 0,1.43881 -0.98959,2.22657 -0.98959,0.78777 -2.81252,0.78777 -0.61198,0 -1.26302,-0.1237 -0.64454,-0.11719 -1.33465,-0.35808 v -1.26954 q 0.54688,0.31902 1.19793,0.48178 0.65104,0.16276 1.36068,0.16276 1.23699,0 1.88152,-0.48829 0.65105,-0.48828 0.65105,-1.41927 0,-0.85938 -0.60548,-1.34116 -0.59896,-0.48828 -1.67318,-0.48828 h -1.13282 v -1.08073 h 1.1849 q 0.97006,0 1.48438,-0.38412 0.51433,-0.39063 0.51433,-1.1198 0,-0.7487 -0.53386,-1.14584 -0.52734,-0.40365 -1.51693,-0.40365 -0.54037,0 -1.15886,0.11719 -0.61849,0.11719 -1.36069,0.36459 v -1.17188 q 0.74871,-0.20834 1.39975,-0.31251 0.65756,-0.10416 1.23699,-0.10416 1.4974,0 2.3698,0.68359 0.8724,0.67709 0.8724,1.83595 0,0.8073 -0.46224,1.3672 -0.46224,0.55338 -1.31511,0.76823 z"
         style="font-style:normal;font-variant:normal;font-weight:normal;font-stretch:normal;font-size:13.33340263px;font-family:sans-serif;-inkscape-font-specification:'sans-serif, Normal';font-variant-ligatures:normal;font-variant-caps:normal;font-variant-numeric:normal;font-feature-settings:normal;text-align:start;writing-mode:lr-tb;text-anchor:start;fill:#0094ce;fill-opacity:1"
         id="path1040" /><path
         d="m 292.84837,112.23374 q -1.01563,0 -1.52995,1.00261 -0.50782,0.9961 -0.50782,3.00132 0,1.9987 0.50782,3.00131 0.51432,0.9961 1.52995,0.9961 1.02214,0 1.52996,-0.9961 0.51432,-1.00261 0.51432,-3.00131 0,-2.00522 -0.51432,-3.00132 -0.50782,-1.00261 -1.52996,-1.00261 z m 0,-1.04167 q 1.63413,0 2.49351,1.29558 0.86589,1.28907 0.86589,3.75002 0,2.45444 -0.86589,3.75002 -0.85938,1.28907 -2.49351,1.28907 -1.63412,0 -2.50001,-1.28907 -0.85938,-1.29558 -0.85938,-3.75002 0,-2.46095 0.85938,-3.75002 0.86589,-1.29558 2.50001,-1.29558 z"
         style="font-style:normal;font-variant:normal;font-weight:normal;font-stretch:normal;font-size:13.33340263px;font-family:sans-serif;-inkscape-font-specification:'sans-serif, Normal';font-variant-ligatures:normal;font-variant-caps:normal;font-variant-numeric:normal;font-feature-settings:normal;text-align:start;writing-mode:lr-tb;text-anchor:start;fill:#0094ce;fill-opacity:1"
         id="path1042" /></g><g
       aria-label="30"
       transform="matrix(-0.76768601,0,0,-0.76768601,393.43333,206.20243)"
       style="font-style:normal;font-variant:normal;font-weight:normal;font-stretch:normal;font-size:13.33340263px;line-height:1.25;font-family:sans-serif;-inkscape-font-specification:'sans-serif, Normal';font-variant-ligatures:normal;font-variant-caps:normal;font-variant-numeric:normal;font-feature-settings:normal;text-align:start;letter-spacing:0px;word-spacing:0px;writing-mode:lr-tb;text-anchor:start;fill:#0094ce;fill-opacity:1;stroke:none"
       id="flowRoot1297"><path
         d="m 285.53714,115.84704 q 0.94401,0.20182 1.47136,0.83985 0.53386,0.63802 0.53386,1.57553 0,1.43881 -0.98959,2.22657 -0.98959,0.78777 -2.81252,0.78777 -0.61198,0 -1.26302,-0.1237 -0.64454,-0.11719 -1.33465,-0.35808 v -1.26954 q 0.54688,0.31902 1.19793,0.48178 0.65104,0.16276 1.36068,0.16276 1.23699,0 1.88152,-0.48829 0.65105,-0.48828 0.65105,-1.41927 0,-0.85938 -0.60548,-1.34116 -0.59896,-0.48828 -1.67318,-0.48828 h -1.13282 v -1.08073 h 1.1849 q 0.97006,0 1.48438,-0.38412 0.51433,-0.39063 0.51433,-1.1198 0,-0.7487 -0.53386,-1.14584 -0.52734,-0.40365 -1.51693,-0.40365 -0.54037,0 -1.15886,0.11719 -0.61849,0.11719 -1.36069,0.36459 v -1.17188 q 0.74871,-0.20834 1.39975,-0.31251 0.65756,-0.10416 1.23699,-0.10416 1.4974,0 2.3698,0.68359 0.8724,0.67709 0.8724,1.83595 0,0.8073 -0.46224,1.3672 -0.46224,0.55338 -1.31511,0.76823 z"
         style="font-style:normal;font-variant:normal;font-weight:normal;font-stretch:normal;font-size:13.33340263px;font-family:sans-serif;-inkscape-font-specification:'sans-serif, Normal';font-variant-ligatures:normal;font-variant-caps:normal;font-variant-numeric:normal;font-feature-settings:normal;text-align:start;writing-mode:lr-tb;text-anchor:start;fill:#0094ce;fill-opacity:1"
         id="path1045" /><path
         d="m 292.84837,112.23374 q -1.01563,0 -1.52995,1.00261 -0.50782,0.9961 -0.50782,3.00132 0,1.9987 0.50782,3.00131 0.51432,0.9961 1.52995,0.9961 1.02214,0 1.52996,-0.9961 0.51432,-1.00261 0.51432,-3.00131 0,-2.00522 -0.51432,-3.00132 -0.50782,-1.00261 -1.52996,-1.00261 z m 0,-1.04167 q 1.63413,0 2.49351,1.29558 0.86589,1.28907 0.86589,3.75002 0,2.45444 -0.86589,3.75002 -0.85938,1.28907 -2.49351,1.28907 -1.63412,0 -2.50001,-1.28907 -0.85938,-1.29558 -0.85938,-3.75002 0,-2.46095 0.85938,-3.75002 0.86589,-1.29558 2.50001,-1.29558 z"
         style="font-style:normal;font-variant:normal;font-weight:normal;font-stretch:normal;font-size:13.33340263px;font-family:sans-serif;-inkscape-font-specification:'sans-serif, Normal';font-variant-ligatures:normal;font-variant-caps:normal;font-variant-numeric:normal;font-feature-settings:normal;text-align:start;writing-mode:lr-tb;text-anchor:start;fill:#0094ce;fill-opacity:1"
         id="path1047" /></g></g><g
     aria-label="10"
     transform="matrix(0.76768601,0,0,0.76768601,7.720394,137.84852)"
     style="font-style:normal;font-variant:normal;font-weight:normal;font-stretch:normal;font-size:13.33340263px;line-height:1.25;font-family:sans-serif;-inkscape-font-specification:'sans-serif, Normal';font-variant-ligatures:normal;font-variant-caps:normal;font-variant-numeric:normal;font-feature-settings:normal;text-align:start;letter-spacing:0px;word-spacing:0px;writing-mode:lr-tb;text-anchor:start;fill:#0094ce;fill-opacity:1;stroke:none"
     id="flowRoot1323"><path
       d="m 281.78061,119.98118 h 2.14845 v -7.41541 l -2.33726,0.46875 v -1.19792 l 2.32424,-0.46875 h 1.31511 v 8.61333 h 2.14844 v 1.10677 h -5.59898 z"
       style="font-style:normal;font-variant:normal;font-weight:normal;font-stretch:normal;font-size:13.33340263px;font-family:sans-serif;-inkscape-font-specification:'sans-serif, Normal';font-variant-ligatures:normal;font-variant-caps:normal;font-variant-numeric:normal;font-feature-settings:normal;text-align:start;writing-mode:lr-tb;text-anchor:start;fill:#0094ce;fill-opacity:1"
       id="path1050" /><path
       d="m 292.84837,112.23374 q -1.01563,0 -1.52995,1.00261 -0.50782,0.9961 -0.50782,3.00132 0,1.9987 0.50782,3.00131 0.51432,0.9961 1.52995,0.9961 1.02214,0 1.52996,-0.9961 0.51432,-1.00261 0.51432,-3.00131 0,-2.00522 -0.51432,-3.00132 -0.50782,-1.00261 -1.52996,-1.00261 z m 0,-1.04167 q 1.63413,0 2.49351,1.29558 0.86589,1.28907 0.86589,3.75002 0,2.45444 -0.86589,3.75002 -0.85938,1.28907 -2.49351,1.28907 -1.63412,0 -2.50001,-1.28907 -0.85938,-1.29558 -0.85938,-3.75002 0,-2.46095 0.85938,-3.75002 0.86589,-1.29558 2.50001,-1.29558 z"
       style="font-style:normal;font-variant:normal;font-weight:normal;font-stretch:normal;font-size:13.33340263px;font-family:sans-serif;-inkscape-font-specification:'sans-serif, Normal';font-variant-ligatures:normal;font-variant-caps:normal;font-variant-numeric:normal;font-feature-settings:normal;text-align:start;writing-mode:lr-tb;text-anchor:start;fill:#0094ce;fill-opacity:1"
       id="path1052" /></g><g
     aria-label="10"
     transform="matrix(0.76768601,0,0,0.76768601,-51.741236,137.84852)"
     style="font-style:normal;font-variant:normal;font-weight:normal;font-stretch:normal;font-size:13.33340263px;line-height:1.25;font-family:sans-serif;-inkscape-font-specification:'sans-serif, Normal';font-variant-ligatures:normal;font-variant-caps:normal;font-variant-numeric:normal;font-feature-settings:normal;text-align:start;letter-spacing:0px;word-spacing:0px;writing-mode:lr-tb;text-anchor:start;fill:#0094ce;fill-opacity:1;stroke:none"
     id="flowRoot1331"><path
       d="m 281.78061,119.98118 h 2.14845 v -7.41541 l -2.33726,0.46875 v -1.19792 l 2.32424,-0.46875 h 1.31511 v 8.61333 h 2.14844 v 1.10677 h -5.59898 z"
       style="font-style:normal;font-variant:normal;font-weight:normal;font-stretch:normal;font-size:13.33340263px;font-family:sans-serif;-inkscape-font-specification:'sans-serif, Normal';font-variant-ligatures:normal;font-variant-caps:normal;font-variant-numeric:normal;font-feature-settings:normal;text-align:start;writing-mode:lr-tb;text-anchor:start;fill:#0094ce;fill-opacity:1"
       id="path1055" /><path
       d="m 292.84837,112.23374 q -1.01563,0 -1.52995,1.00261 -0.50782,0.9961 -0.50782,3.00132 0,1.9987 0.50782,3.00131 0.51432,0.9961 1.52995,0.9961 1.02214,0 1.52996,-0.9961 0.51432,-1.00261 0.51432,-3.00131 0,-2.00522 -0.51432,-3.00132 -0.50782,-1.00261 -1.52996,-1.00261 z m 0,-1.04167 q 1.63413,0 2.49351,1.29558 0.86589,1.28907 0.86589,3.75002 0,2.45444 -0.86589,3.75002 -0.85938,1.28907 -2.49351,1.28907 -1.63412,0 -2.50001,-1.28907 -0.85938,-1.29558 -0.85938,-3.75002 0,-2.46095 0.85938,-3.75002 0.86589,-1.29558 2.50001,-1.29558 z"
       style="font-style:normal;font-variant:normal;font-weight:normal;font-stretch:normal;font-size:13.33340263px;font-family:sans-serif;-inkscape-font-specification:'sans-serif, Normal';font-variant-ligatures:normal;font-variant-caps:normal;font-variant-numeric:normal;font-feature-settings:normal;text-align:start;writing-mode:lr-tb;text-anchor:start;fill:#0094ce;fill-opacity:1"
       id="path1057" /></g><g
     aria-label="20"
     transform="matrix(0.76768601,0,0,0.76768601,17.888612,165.80831)"
     style="font-style:normal;font-variant:normal;font-weight:normal;font-stretch:normal;font-size:13.33340263px;line-height:1.25;font-family:sans-serif;-inkscape-font-specification:'sans-serif, Normal';font-variant-ligatures:normal;font-variant-caps:normal;font-variant-numeric:normal;font-feature-settings:normal;text-align:start;letter-spacing:0px;word-spacing:0px;writing-mode:lr-tb;text-anchor:start;fill:#0094ce;fill-opacity:1;stroke:none"
     id="flowRoot1339"><path
       d="m 282.68556,119.98118 h 4.58987 v 1.10677 h -6.17191 v -1.10677 q 0.7487,-0.77475 2.03777,-2.07684 1.29558,-1.3086 1.62761,-1.68621 0.63152,-0.70963 0.87892,-1.19792 0.2539,-0.49479 0.2539,-0.97006 0,-0.77474 -0.54688,-1.26302 -0.54036,-0.48829 -1.41276,-0.48829 -0.6185,0 -1.3086,0.21485 -0.6836,0.21484 -1.46485,0.65104 v -1.32813 q 0.79427,-0.31901 1.48438,-0.48177 0.69011,-0.16276 1.26303,-0.16276 1.51042,0 2.40886,0.75521 0.89844,0.75521 0.89844,2.01824 0,0.59896 -0.22786,1.13933 -0.22136,0.53385 -0.81381,1.26303 -0.16276,0.1888 -1.03516,1.09375 -0.8724,0.89844 -2.46095,2.51955 z"
       style="font-style:normal;font-variant:normal;font-weight:normal;font-stretch:normal;font-size:13.33340263px;font-family:sans-serif;-inkscape-font-specification:'sans-serif, Normal';font-variant-ligatures:normal;font-variant-caps:normal;font-variant-numeric:normal;font-feature-settings:normal;text-align:start;writing-mode:lr-tb;text-anchor:start;fill:#0094ce;fill-opacity:1"
       id="path1060" /><path
       d="m 292.84837,112.23374 q -1.01563,0 -1.52995,1.00261 -0.50782,0.9961 -0.50782,3.00132 0,1.9987 0.50782,3.00131 0.51432,0.9961 1.52995,0.9961 1.02214,0 1.52996,-0.9961 0.51432,-1.00261 0.51432,-3.00131 0,-2.00522 -0.51432,-3.00132 -0.50782,-1.00261 -1.52996,-1.00261 z m 0,-1.04167 q 1.63413,0 2.49351,1.29558 0.86589,1.28907 0.86589,3.75002 0,2.45444 -0.86589,3.75002 -0.85938,1.28907 -2.49351,1.28907 -1.63412,0 -2.50001,-1.28907 -0.85938,-1.29558 -0.85938,-3.75002 0,-2.46095 0.85938,-3.75002 0.86589,-1.29558 2.50001,-1.29558 z"
       style="font-style:normal;font-variant:normal;font-weight:normal;font-stretch:normal;font-size:13.33340263px;font-family:sans-serif;-inkscape-font-specification:'sans-serif, Normal';font-variant-ligatures:normal;font-variant-caps:normal;font-variant-numeric:normal;font-feature-settings:normal;text-align:start;writing-mode:lr-tb;text-anchor:start;fill:#0094ce;fill-opacity:1"
       id="path1062" /></g><g
     aria-label="20"
     transform="matrix(0.76768601,0,0,0.76768601,-61.679031,165.80831)"
     style="font-style:normal;font-variant:normal;font-weight:normal;font-stretch:normal;font-size:13.33340263px;line-height:1.25;font-family:sans-serif;-inkscape-font-specification:'sans-serif, Normal';font-variant-ligatures:normal;font-variant-caps:normal;font-variant-numeric:normal;font-feature-settings:normal;text-align:start;letter-spacing:0px;word-spacing:0px;writing-mode:lr-tb;text-anchor:start;fill:#0094ce;fill-opacity:1;stroke:none"
     id="flowRoot1347"><path
       d="m 282.68556,119.98118 h 4.58987 v 1.10677 h -6.17191 v -1.10677 q 0.7487,-0.77475 2.03777,-2.07684 1.29558,-1.3086 1.62761,-1.68621 0.63152,-0.70963 0.87892,-1.19792 0.2539,-0.49479 0.2539,-0.97006 0,-0.77474 -0.54688,-1.26302 -0.54036,-0.48829 -1.41276,-0.48829 -0.6185,0 -1.3086,0.21485 -0.6836,0.21484 -1.46485,0.65104 v -1.32813 q 0.79427,-0.31901 1.48438,-0.48177 0.69011,-0.16276 1.26303,-0.16276 1.51042,0 2.40886,0.75521 0.89844,0.75521 0.89844,2.01824 0,0.59896 -0.22786,1.13933 -0.22136,0.53385 -0.81381,1.26303 -0.16276,0.1888 -1.03516,1.09375 -0.8724,0.89844 -2.46095,2.51955 z"
       style="font-style:normal;font-variant:normal;font-weight:normal;font-stretch:normal;font-size:13.33340263px;font-family:sans-serif;-inkscape-font-specification:'sans-serif, Normal';font-variant-ligatures:normal;font-variant-caps:normal;font-variant-numeric:normal;font-feature-settings:normal;text-align:start;writing-mode:lr-tb;text-anchor:start;fill:#0094ce;fill-opacity:1"
       id="path1065" /><path
       d="m 292.84837,112.23374 q -1.01563,0 -1.52995,1.00261 -0.50782,0.9961 -0.50782,3.00132 0,1.9987 0.50782,3.00131 0.51432,0.9961 1.52995,0.9961 1.02214,0 1.52996,-0.9961 0.51432,-1.00261 0.51432,-3.00131 0,-2.00522 -0.51432,-3.00132 -0.50782,-1.00261 -1.52996,-1.00261 z m 0,-1.04167 q 1.63413,0 2.49351,1.29558 0.86589,1.28907 0.86589,3.75002 0,2.45444 -0.86589,3.75002 -0.85938,1.28907 -2.49351,1.28907 -1.63412,0 -2.50001,-1.28907 -0.85938,-1.29558 -0.85938,-3.75002 0,-2.46095 0.85938,-3.75002 0.86589,-1.29558 2.50001,-1.29558 z"
       style="font-style:normal;font-variant:normal;font-weight:normal;font-stretch:normal;font-size:13.33340263px;font-family:sans-serif;-inkscape-font-specification:'sans-serif, Normal';font-variant-ligatures:normal;font-variant-caps:normal;font-variant-numeric:normal;font-feature-settings:normal;text-align:start;writing-mode:lr-tb;text-anchor:start;fill:#0094ce;fill-opacity:1"
       id="path1067" /></g><g
     transform="rotate(180,200.5965,228.38053)"
     id="g1393"><g
       transform="translate(0,-3.2389363)"
       id="g1359"><path
         style="fill:none;stroke:#0094ce;stroke-width:2;stroke-miterlimit:10;stroke-opacity:1"
         d="m 187.979,134.53192 h 25"
         id="line1351" /><path
         style="fill:none;stroke:#0094ce;stroke-width:2;stroke-miterlimit:10;stroke-opacity:1"
         d="m 188.16701,106.53192 h 25"
         id="line1353" /><path
         style="fill:none;stroke:#0094ce;stroke-width:2;stroke-miterlimit:10;stroke-opacity:1"
         d="m 180.04201,120.56293 h 40"
         id="line1355" /><path
         style="fill:none;stroke:#0094ce;stroke-width:2;stroke-miterlimit:10;stroke-opacity:1"
         d="m 170.04201,92.490921 h 60"
         id="line1357" /></g><g
       aria-label="60"
       transform="matrix(-0.76768601,0,0,-0.76768601,463.08341,177.97755)"
       style="font-style:normal;font-variant:normal;font-weight:normal;font-stretch:normal;font-size:13.33340263px;line-height:1.25;font-family:sans-serif;-inkscape-font-specification:'sans-serif, Normal';font-variant-ligatures:normal;font-variant-caps:normal;font-variant-numeric:normal;font-feature-settings:normal;text-align:start;letter-spacing:0px;word-spacing:0px;writing-mode:lr-tb;text-anchor:start;fill:#0094ce;fill-opacity:1;stroke:none"
       id="flowRoot1367"><path
         d="m 284.52802,115.70381 q -0.88542,0 -1.40626,0.60547 -0.51433,0.60547 -0.51433,1.66017 0,1.04818 0.51433,1.66016 0.52084,0.60547 1.40626,0.60547 0.88542,0 1.39974,-0.60547 0.52084,-0.61198 0.52084,-1.66016 0,-1.0547 -0.52084,-1.66017 -0.51432,-0.60547 -1.39974,-0.60547 z m 2.61069,-4.12112 v 1.19793 q -0.4948,-0.23438 -1.00261,-0.35808 -0.50131,-0.1237 -0.9961,-0.1237 -1.30209,0 -1.9922,0.87891 -0.6836,0.87892 -0.78125,2.65627 0.38411,-0.56641 0.96354,-0.86589 0.57943,-0.30599 1.27605,-0.30599 1.46485,0 2.31121,0.89193 0.85287,0.88542 0.85287,2.41538 0,1.4974 -0.88542,2.40235 -0.88542,0.90496 -2.35678,0.90496 -1.68621,0 -2.57814,-1.28907 -0.89193,-1.29558 -0.89193,-3.75002 0,-2.3047 1.09375,-3.6719 1.09376,-1.3737 2.93622,-1.3737 0.49479,0 0.9961,0.0977 0.50781,0.0977 1.05469,0.29297 z"
         style="font-style:normal;font-variant:normal;font-weight:normal;font-stretch:normal;font-size:13.33340263px;font-family:sans-serif;-inkscape-font-specification:'sans-serif, Normal';font-variant-ligatures:normal;font-variant-caps:normal;font-variant-numeric:normal;font-feature-settings:normal;text-align:start;writing-mode:lr-tb;text-anchor:start;fill:#0094ce;fill-opacity:1"
         id="path1074" /><path
         d="m 292.84837,112.23374 q -1.01563,0 -1.52995,1.00261 -0.50782,0.9961 -0.50782,3.00132 0,1.9987 0.50782,3.00131 0.51432,0.9961 1.52995,0.9961 1.02214,0 1.52996,-0.9961 0.51432,-1.00261 0.51432,-3.00131 0,-2.00522 -0.51432,-3.00132 -0.50782,-1.00261 -1.52996,-1.00261 z m 0,-1.04167 q 1.63413,0 2.49351,1.29558 0.86589,1.28907 0.86589,3.75002 0,2.45444 -0.86589,3.75002 -0.85938,1.28907 -2.49351,1.28907 -1.63412,0 -2.50001,-1.28907 -0.85938,-1.29558 -0.85938,-3.75002 0,-2.46095 0.85938,-3.75002 0.86589,-1.29558 2.50001,-1.29558 z"
         style="font-style:normal;font-variant:normal;font-weight:normal;font-stretch:normal;font-size:13.33340263px;font-family:sans-serif;-inkscape-font-specification:'sans-serif, Normal';font-variant-ligatures:normal;font-variant-caps:normal;font-variant-numeric:normal;font-feature-settings:normal;text-align:start;writing-mode:lr-tb;text-anchor:start;fill:#0094ce;fill-opacity:1"
         id="path1076" /></g><g
       aria-label="60"
       transform="matrix(-0.76768601,0,0,-0.76768601,383.36571,177.97755)"
       style="font-style:normal;font-variant:normal;font-weight:normal;font-stretch:normal;font-size:13.33340263px;line-height:1.25;font-family:sans-serif;-inkscape-font-specification:'sans-serif, Normal';font-variant-ligatures:normal;font-variant-caps:normal;font-variant-numeric:normal;font-feature-settings:normal;text-align:start;letter-spacing:0px;word-spacing:0px;writing-mode:lr-tb;text-anchor:start;fill:#0094ce;fill-opacity:1;stroke:none"
       id="flowRoot1375"><path
         d="m 284.52802,115.70381 q -0.88542,0 -1.40626,0.60547 -0.51433,0.60547 -0.51433,1.66017 0,1.04818 0.51433,1.66016 0.52084,0.60547 1.40626,0.60547 0.88542,0 1.39974,-0.60547 0.52084,-0.61198 0.52084,-1.66016 0,-1.0547 -0.52084,-1.66017 -0.51432,-0.60547 -1.39974,-0.60547 z m 2.61069,-4.12112 v 1.19793 q -0.4948,-0.23438 -1.00261,-0.35808 -0.50131,-0.1237 -0.9961,-0.1237 -1.30209,0 -1.9922,0.87891 -0.6836,0.87892 -0.78125,2.65627 0.38411,-0.56641 0.96354,-0.86589 0.57943,-0.30599 1.27605,-0.30599 1.46485,0 2.31121,0.89193 0.85287,0.88542 0.85287,2.41538 0,1.4974 -0.88542,2.40235 -0.88542,0.90496 -2.35678,0.90496 -1.68621,0 -2.57814,-1.28907 -0.89193,-1.29558 -0.89193,-3.75002 0,-2.3047 1.09375,-3.6719 1.09376,-1.3737 2.93622,-1.3737 0.49479,0 0.9961,0.0977 0.50781,0.0977 1.05469,0.29297 z"
         style="font-style:normal;font-variant:normal;font-weight:normal;font-stretch:normal;font-size:13.33340263px;font-family:sans-serif;-inkscape-font-specification:'sans-serif, Normal';font-variant-ligatures:normal;font-variant-caps:normal;font-variant-numeric:normal;font-feature-settings:normal;text-align:start;writing-mode:lr-tb;text-anchor:start;fill:#0094ce;fill-opacity:1"
         id="path1079" /><path
         d="m 292.84837,112.23374 q -1.01563,0 -1.52995,1.00261 -0.50782,0.9961 -0.50782,3.00132 0,1.9987 0.50782,3.00131 0.51432,0.9961 1.52995,0.9961 1.02214,0 1.52996,-0.9961 0.51432,-1.00261 0.51432,-3.00131 0,-2.00522 -0.51432,-3.00132 -0.50782,-1.00261 -1.52996,-1.00261 z m 0,-1.04167 q 1.63413,0 2.49351,1.29558 0.86589,1.28907 0.86589,3.75002 0,2.45444 -0.86589,3.75002 -0.85938,1.28907 -2.49351,1.28907 -1.63412,0 -2.50001,-1.28907 -0.85938,-1.29558 -0.85938,-3.75002 0,-2.46095 0.85938,-3.75002 0.86589,-1.29558 2.50001,-1.29558 z"
         style="font-style:normal;font-variant:normal;font-weight:normal;font-stretch:normal;font-size:13.33340263px;font-family:sans-serif;-inkscape-font-specification:'sans-serif, Normal';font-variant-ligatures:normal;font-variant-caps:normal;font-variant-numeric:normal;font-feature-settings:normal;text-align:start;writing-mode:lr-tb;text-anchor:start;fill:#0094ce;fill-opacity:1"
         id="path1081" /></g><g
       aria-label="50"
       transform="matrix(-0.76768601,0,0,-0.76768601,452.89496,206.20243)"
       style="font-style:normal;font-variant:normal;font-weight:normal;font-stretch:normal;font-size:13.33340263px;line-height:1.25;font-family:sans-serif;-inkscape-font-specification:'sans-serif, Normal';font-variant-ligatures:normal;font-variant-caps:normal;font-variant-numeric:normal;font-feature-settings:normal;text-align:start;letter-spacing:0px;word-spacing:0px;writing-mode:lr-tb;text-anchor:start;fill:#0094ce;fill-opacity:1;stroke:none"
       id="flowRoot1383"><path
         d="m 281.56576,111.36785 h 5.16279 v 1.10678 h -3.95835 v 2.38282 q 0.28646,-0.0977 0.57292,-0.14323 0.28646,-0.0521 0.57292,-0.0521 1.62761,0 2.57813,0.89193 0.95053,0.89193 0.95053,2.41538 0,1.56901 -0.97657,2.44142 -0.97657,0.86589 -2.75392,0.86589 -0.61198,0 -1.25001,-0.10417 -0.63151,-0.10417 -1.3086,-0.3125 v -1.32163 q 0.58594,0.31902 1.21095,0.47527 0.625,0.15625 1.32162,0.15625 1.12631,0 1.78386,-0.59245 0.65756,-0.59245 0.65756,-1.60808 0,-1.01563 -0.65756,-1.60809 -0.65755,-0.59245 -1.78386,-0.59245 -0.52735,0 -1.05469,0.11719 -0.52084,0.11719 -1.06772,0.36459 z"
         style="font-style:normal;font-variant:normal;font-weight:normal;font-stretch:normal;font-size:13.33340263px;font-family:sans-serif;-inkscape-font-specification:'sans-serif, Normal';font-variant-ligatures:normal;font-variant-caps:normal;font-variant-numeric:normal;font-feature-settings:normal;text-align:start;writing-mode:lr-tb;text-anchor:start;fill:#0094ce;fill-opacity:1"
         id="path1084" /><path
         d="m 292.84837,112.23374 q -1.01563,0 -1.52995,1.00261 -0.50782,0.9961 -0.50782,3.00132 0,1.9987 0.50782,3.00131 0.51432,0.9961 1.52995,0.9961 1.02214,0 1.52996,-0.9961 0.51432,-1.00261 0.51432,-3.00131 0,-2.00522 -0.51432,-3.00132 -0.50782,-1.00261 -1.52996,-1.00261 z m 0,-1.04167 q 1.63413,0 2.49351,1.29558 0.86589,1.28907 0.86589,3.75002 0,2.45444 -0.86589,3.75002 -0.85938,1.28907 -2.49351,1.28907 -1.63412,0 -2.50001,-1.28907 -0.85938,-1.29558 -0.85938,-3.75002 0,-2.46095 0.85938,-3.75002 0.86589,-1.29558 2.50001,-1.29558 z"
         style="font-style:normal;font-variant:normal;font-weight:normal;font-stretch:normal;font-size:13.33340263px;font-family:sans-serif;-inkscape-font-specification:'sans-serif, Normal';font-variant-ligatures:normal;font-variant-caps:normal;font-variant-numeric:normal;font-feature-settings:normal;text-align:start;writing-mode:lr-tb;text-anchor:start;fill:#0094ce;fill-opacity:1"
         id="path1086" /></g><g
       aria-label="50"
       transform="matrix(-0.76768601,0,0,-0.76768601,393.43333,206.20243)"
       style="font-style:normal;font-variant:normal;font-weight:normal;font-stretch:normal;font-size:13.33340263px;line-height:1.25;font-family:sans-serif;-inkscape-font-specification:'sans-serif, Normal';font-variant-ligatures:normal;font-variant-caps:normal;font-variant-numeric:normal;font-feature-settings:normal;text-align:start;letter-spacing:0px;word-spacing:0px;writing-mode:lr-tb;text-anchor:start;fill:#0094ce;fill-opacity:1;stroke:none"
       id="flowRoot1391"><path
         d="m 281.56576,111.36785 h 5.16279 v 1.10678 h -3.95835 v 2.38282 q 0.28646,-0.0977 0.57292,-0.14323 0.28646,-0.0521 0.57292,-0.0521 1.62761,0 2.57813,0.89193 0.95053,0.89193 0.95053,2.41538 0,1.56901 -0.97657,2.44142 -0.97657,0.86589 -2.75392,0.86589 -0.61198,0 -1.25001,-0.10417 -0.63151,-0.10417 -1.3086,-0.3125 v -1.32163 q 0.58594,0.31902 1.21095,0.47527 0.625,0.15625 1.32162,0.15625 1.12631,0 1.78386,-0.59245 0.65756,-0.59245 0.65756,-1.60808 0,-1.01563 -0.65756,-1.60809 -0.65755,-0.59245 -1.78386,-0.59245 -0.52735,0 -1.05469,0.11719 -0.52084,0.11719 -1.06772,0.36459 z"
         style="font-style:normal;font-variant:normal;font-weight:normal;font-stretch:normal;font-size:13.33340263px;font-family:sans-serif;-inkscape-font-specification:'sans-serif, Normal';font-variant-ligatures:normal;font-variant-caps:normal;font-variant-numeric:normal;font-feature-settings:normal;text-align:start;writing-mode:lr-tb;text-anchor:start;fill:#0094ce;fill-opacity:1"
         id="path1089" /><path
         d="m 292.84837,112.23374 q -1.01563,0 -1.52995,1.00261 -0.50782,0.9961 -0.50782,3.00132 0,1.9987 0.50782,3.00131 0.51432,0.9961 1.52995,0.9961 1.02214,0 1.52996,-0.9961 0.51432,-1.00261 0.51432,-3.00131 0,-2.00522 -0.51432,-3.00132 -0.50782,-1.00261 -1.52996,-1.00261 z m 0,-1.04167 q 1.63413,0 2.49351,1.29558 0.86589,1.28907 0.86589,3.75002 0,2.45444 -0.86589,3.75002 -0.85938,1.28907 -2.49351,1.28907 -1.63412,0 -2.50001,-1.28907 -0.85938,-1.29558 -0.85938,-3.75002 0,-2.46095 0.85938,-3.75002 0.86589,-1.29558 2.50001,-1.29558 z"
         style="font-style:normal;font-variant:normal;font-weight:normal;font-stretch:normal;font-size:13.33340263px;font-family:sans-serif;-inkscape-font-specification:'sans-serif, Normal';font-variant-ligatures:normal;font-variant-caps:normal;font-variant-numeric:normal;font-feature-settings:normal;text-align:start;writing-mode:lr-tb;text-anchor:start;fill:#0094ce;fill-opacity:1"
         id="path1091" /></g></g></g></svg>